<?xml version="1.0" encoding="UTF-8"?>
<svg width="448px" height="80px" viewBox="0 0 448 80" version="1.1" xmlns="http://www.w3.org/2000/svg" xmlns:xlink="http://www.w3.org/1999/xlink">
    <!-- Generator: Sketch 62 (91390) - https://sketch.com -->
    <title>形状</title>
    <desc>Created with Sketch.</desc>
    <g id="页面-1" stroke="none" stroke-width="1" fill="none" fill-rule="evenodd">
        <g id="编组-2" fill="#FFFFFF">
            <path d="M60.2930365,35.3531512 L60.3760684,35.6923077 C62.1264957,43.2326101 68.7159743,48.5853962 76.4241967,48.9441183 L76.7863248,48.957265 C77.6752137,48.957265 78.4273504,49.7094017 78.4273504,50.6666667 C78.362773,51.5061728 77.688298,52.2236995 76.8647368,52.3008336 L76.7179487,52.3076923 C67.4078632,52.1052991 59.4956399,45.7789387 57.2503051,36.8095094 L57.1623932,36.4444444 C54.974359,27.2136752 45.7435897,21.4017094 36.4444444,23.5897436 C27.3008768,25.7571078 21.5118239,34.8347723 23.5298715,44.0441739 C23.5547769,44.1067246 23.5742186,44.1720412 23.5897436,44.2393162 C26.6666667,57.2991453 34.3247863,68.7863248 45.2649573,76.5811966 C46.017094,77.1282051 46.1538462,78.1538462 45.6752137,78.9059829 C45.3333333,79.3846154 44.7863248,79.5897436 44.3076923,79.5897436 C43.965812,79.5897436 43.6239316,79.5213675 43.3504274,79.2478632 C31.9061227,71.054012 23.7480435,59.0374085 20.4702736,45.3899179 C20.4012421,45.2658081 20.3460842,45.1322233 20.3076923,44.991453 C17.7777778,33.982906 24.6837607,22.974359 35.6923077,20.3760684 C46.6550357,17.8045643 57.5507902,24.5423794 60.2930365,35.3531512 Z M92.7179487,76.1709402 C93.560054,76.1709402 94.2794233,76.8459881 94.3528136,77.6728411 L94.3589744,77.8119658 C94.4273504,78.7692308 93.6752137,79.4529915 92.7179487,79.4529915 L67.3504274,79.4529915 C66.4615385,79.4529915 65.7094017,78.7008547 65.7094017,77.8119658 C65.7094017,76.9230769 66.4615385,76.1709402 67.3504274,76.1709402 L92.7179487,76.1709402 Z M69.2992635,32.6205774 L69.4292259,33.12066 C69.5086121,33.25814 69.5692215,33.4096465 69.6068376,33.5726496 C70.4957265,37.4017094 74.1196581,40 78.017094,39.5213675 C78.9059829,39.4529915 79.7264957,40.0683761 79.8632479,40.957265 C79.9316239,41.8461538 79.3162393,42.6666667 78.4273504,42.8034188 C77.9487179,42.8717949 77.5384615,42.8717949 77.1282051,42.8717949 C72.2243192,42.8717949 67.834244,39.5962517 66.510102,34.7880784 C66.4264954,34.6479476 66.3634776,34.4924486 66.3247863,34.3247863 C62.974359,20.034188 48.6153846,11.0769231 34.2564103,14.4273504 C19.965812,17.7777778 11.0769231,32.1367521 14.4273504,46.4273504 C14.5641026,46.9059829 14.6324786,47.3162393 14.7692308,47.7264957 C14.8070624,47.8494486 14.8305035,47.9724015 14.8404587,48.0937258 C17.4411548,58.0633755 22.4666463,67.3644992 29.3333333,75.008547 C29.9487179,75.6923077 29.8803419,76.7179487 29.1965812,77.3333333 C28.8547009,77.6068376 28.4444444,77.7435897 28.1025641,77.7435897 C27.6239316,77.7435897 27.2136752,77.5384615 26.8717949,77.1965812 C19.6414065,69.1915084 14.4224115,59.4797987 11.6751858,49.039751 C11.6262652,48.9488702 11.5857314,48.852723 11.5555556,48.7521368 C11.4188034,48.2051282 11.2820513,47.7264957 11.1452991,47.2478632 C7.38461538,31.1794872 17.4358974,14.974359 33.5042735,11.2136752 C49.2528889,7.52782906 65.1328678,17.1097022 69.2992635,32.6205774 L69.2992635,32.6205774 Z M51.2136752,37.8803419 C51.2489712,38.0332911 51.2619984,38.1862404 51.2548468,38.3357062 C53.8532196,48.7721584 62.3764203,56.5030309 73.025641,58.1880342 C73.9145299,58.3247863 74.5299145,59.1452991 74.3931624,60.1025641 C74.3247863,60.8547009 73.6410256,61.4017094 72.8205128,61.4017094 L72.5470085,61.4017094 C60.3760684,59.4871795 50.7350427,50.5982906 47.9316239,38.6324786 C47.8987628,38.4900805 47.8852041,38.3476824 47.889261,38.2080954 C46.7514062,34.2825941 42.6600641,31.830123 38.6324786,32.8205128 C34.5417488,33.7593688 31.9637637,37.8552572 32.7692167,41.947351 L32.8205128,42.1880342 L32.9152082,42.5875347 L32.9888301,42.8289479 C33.0011004,42.8665491 33.0133707,42.90336 33.025641,42.9401709 C33.06554,43.0698426 33.0908877,43.1995142 33.1023211,43.3274876 C34.48412,48.66483 36.7891012,53.6205762 39.864476,58.0137268 C39.9940448,58.136963 40.1000576,58.2839572 40.1767781,58.4508757 C42.2888434,61.3963102 44.75242,64.0808779 47.5191293,66.4495459 C47.8091041,66.5692768 48.0573161,66.7718779 48.2245204,67.038358 C51.0342266,69.3501326 54.1434674,71.3411396 57.5042735,72.957265 C58.3247863,73.3675214 58.6666667,74.3247863 58.2564103,75.1452991 C57.982906,75.6923077 57.4358974,76.034188 56.8205128,76.034188 C56.5470085,76.034188 56.3418803,75.965812 56.1367521,75.8974359 C48.5572007,72.2807972 42.1900284,66.8888889 37.4616102,60.2820897 C37.3823373,60.1933845 37.3128362,60.096296 37.2549925,59.992094 C34.0318782,55.4171618 31.5886261,50.2700975 30.0649445,44.7337203 L29.874,44.016 L29.7895299,43.7777778 C29.7094017,43.5213675 29.6581197,43.2649573 29.6068376,43.008547 C28.1709402,36.9230769 31.9316239,30.974359 37.8803419,29.6068376 C43.8290598,28.2393162 49.8461538,31.9316239 51.2136752,37.8803419 Z M92.7179487,67.965812 C93.6068376,67.965812 94.3589744,68.7179487 94.3589744,69.6068376 C94.3589744,70.4957265 93.6752137,71.2478632 92.7179487,71.2478632 L75.8974359,71.2478632 C75.008547,71.2478632 74.2564103,70.4957265 74.2564103,69.6068376 C74.2564103,68.7179487 75.008547,67.965812 75.8974359,67.965812 L92.7179487,67.965812 Z M40.4412789,38.7274454 L40.585089,38.7394042 C41.2501847,38.8241005 41.8233618,39.308642 41.982906,40 C44.9230769,52.5128205 54.3589744,62.6324786 66.6666667,66.3247863 C67.5555556,66.5982906 68.034188,67.4871795 67.7606838,68.3760684 C67.5692308,69.0780627 67.0203989,69.5418044 66.3365571,69.6005166 L66.1880342,69.6068376 C66.0512821,69.6068376 65.8461538,69.6068376 65.7094017,69.5384615 C55.4907162,66.4261715 47.0821671,59.3394514 42.2450418,50.1291454 C42.1523727,49.9965305 42.0791235,49.8563348 42.0251921,49.70653 C40.5939788,46.8965359 39.4920316,43.8947492 38.7692308,40.7521368 C38.5641026,39.8632479 39.1111111,38.974359 40,38.7692308 C40.1481481,38.7350427 40.2962963,38.7217474 40.4412789,38.7274454 Z M135.120752,15.2499145 C140.787419,15.2499145 145.275419,16.8365812 148.584752,20.0099145 C151.799533,23.0925812 153.538409,27.5869834 153.801379,33.4931211 L153.874481,35.6633466 C153.913657,36.9449927 153.938843,38.0027705 153.950036,38.83668 L153.956375,39.9154547 L153.94319,41.0409395 C153.9236,42.1592035 153.882787,43.6488619 153.820752,45.5099145 C153.644456,51.5921368 152.075541,56.1531913 149.114008,59.1930781 L148.856752,59.4499145 L153.412752,65.8419145 L153.486192,66.0023945 C153.573232,66.2127412 153.616752,66.4085812 153.616752,66.5899145 C153.616752,66.9525812 153.480752,67.2699145 153.208752,67.5419145 C152.975609,67.7750574 152.70916,67.9082819 152.409405,67.941588 L152.256752,67.9499145 L148.788752,67.9499145 L148.60494,67.9430083 C148.183481,67.9107791 147.814085,67.7657479 147.496752,67.5079145 C147.206619,67.2721812 146.930992,66.9856745 146.669872,66.6483945 L146.476752,66.3859145 L143.688752,62.5099145 L143.28411,62.6935565 C140.967353,63.7044619 138.246234,64.2099145 135.120752,64.2099145 C129.227419,64.2099145 124.671419,62.6572479 121.452752,59.5519145 C118.323493,56.5328405 116.629702,52.024736 116.371379,46.0276013 L116.336815,44.973352 C116.307065,43.847102 116.290065,42.402102 116.285815,40.638352 L116.285815,38.8225395 C116.290773,36.7697895 116.313085,35.1682479 116.352752,34.0179145 C116.534085,27.8525812 118.290752,23.1832479 121.622752,20.0099145 C124.954752,16.8365812 129.454085,15.2499145 135.120752,15.2499145 Z M320.012752,15.2499145 C323.548752,15.2499145 326.574752,15.8732479 329.090752,17.1199145 C331.606752,18.3665812 333.522085,19.9305812 334.836752,21.8119145 C336.151419,23.6932479 336.854085,25.5859145 336.944752,27.4899145 C336.944752,27.8979145 336.808752,28.2379145 336.536752,28.5099145 C336.298752,28.7479145 336.00869,28.8817895 335.666565,28.9115395 L335.516752,28.9179145 L332.116752,28.9179145 L331.962711,28.9109758 C331.657405,28.8832207 331.368752,28.7722002 331.096752,28.5779145 C330.779419,28.3512479 330.552752,28.0112479 330.416752,27.5579145 C330.144752,25.6085812 329.056752,23.9992479 327.152752,22.7299145 C325.248752,21.4605812 322.868752,20.8259145 320.012752,20.8259145 C316.930085,20.8259145 314.482085,21.4265812 312.668752,22.6279145 C310.855419,23.8292479 309.948752,25.6085812 309.948752,27.9659145 C309.948752,29.5525812 310.368085,30.8445812 311.206752,31.8419145 C312.045419,32.8392479 313.337419,33.7232479 315.082752,34.4939145 C316.828085,35.2645812 319.378085,36.1485812 322.732752,37.1459145 L323.863932,37.4723145 C327.183012,38.4515145 329.831952,39.4307145 331.810752,40.4099145 C334.009419,41.4979145 335.652752,42.8465812 336.740752,44.4559145 C337.828752,46.0652479 338.372752,48.1392479 338.372752,50.6779145 C338.372752,54.9392479 336.752085,58.2599145 333.510752,60.6399145 C330.269419,63.0199145 325.883419,64.2099145 320.352752,64.2099145 C316.635419,64.2099145 313.405419,63.6205812 310.662752,62.4419145 C307.920085,61.2632479 305.834752,59.7105812 304.406752,57.7839145 C302.978752,55.8572479 302.219419,53.7832479 302.128752,51.5619145 C302.128752,51.1992479 302.264752,50.8819145 302.536752,50.6099145 C302.774752,50.3719145 303.064815,50.2380395 303.40694,50.2082895 L303.556752,50.2019145 L306.888752,50.2019145 L307.048628,50.207959 C307.7792,50.2643738 308.292574,50.7156923 308.588752,51.5619145 C308.996752,53.4659145 310.164085,55.1092479 312.090752,56.4919145 C314.017419,57.8745812 316.771419,58.5659145 320.352752,58.5659145 C324.206085,58.5659145 327.084752,57.8859145 328.988752,56.5259145 C330.892752,55.1659145 331.844752,53.2845812 331.844752,50.8819145 C331.844752,49.3405812 331.380085,48.0712479 330.450752,47.0739145 C329.521419,46.0765812 328.138752,45.2039145 326.302752,44.4559145 L325.779265,44.2476997 C323.958438,43.5396005 321.378934,42.6910054 318.040752,41.7019145 C314.550085,40.7045812 311.773419,39.6392479 309.710752,38.5059145 C307.648085,37.3725812 306.095419,35.9785812 305.052752,34.3239145 C304.010085,32.6692479 303.488752,30.5725812 303.488752,28.0339145 C303.488752,25.5859145 304.146085,23.3985812 305.460752,21.4719145 C306.775419,19.5452479 308.679419,18.0265812 311.172752,16.9159145 C313.666085,15.8052479 316.612752,15.2499145 320.012752,15.2499145 Z M382.980752,15.2499145 C386.970085,15.2499145 390.347419,15.9752479 393.112752,17.4259145 C395.878085,18.8765812 397.963419,20.6105812 399.368752,22.6279145 C400.691419,24.5265812 401.431811,26.2947381 401.589929,27.9323851 L401.612752,28.2379145 L401.612752,28.3739145 L401.605846,28.5072583 C401.573617,28.8121958 401.428585,29.0737479 401.170752,29.2919145 C400.918181,29.5056288 400.64063,29.6277513 400.338099,29.6582819 L400.184752,29.6659145 L396.376752,29.6659145 L396.20814,29.6603635 C395.883405,29.6381594 395.633609,29.5493431 395.458752,29.3939145 C395.254752,29.2125812 395.062085,28.8725812 394.880752,28.3739145 C394.155419,26.2432479 392.818085,24.4525812 390.868752,23.0019145 C388.919419,21.5512479 386.290085,20.8259145 382.980752,20.8259145 C379.172752,20.8259145 376.180752,21.8685812 374.004752,23.9539145 C371.903787,25.9673398 370.753689,29.0372851 370.55446,33.1637504 L370.536752,33.6099145 C370.499419,34.6925812 370.477458,36.2517969 370.47087,38.2875616 L370.469693,40.5786204 C370.474399,42.8021498 370.496752,44.5139145 370.536752,45.7139145 C370.672752,50.1112479 371.828752,53.3525812 374.004752,55.4379145 C376.180752,57.5232479 379.172752,58.5659145 382.980752,58.5659145 C386.834085,58.5659145 389.916752,57.5119145 392.228752,55.4039145 C394.461028,53.3686042 395.615653,50.3507302 395.692628,46.3502927 L395.696752,45.9179145 L395.696752,42.9939145 L385.292752,42.9939145 L385.126471,42.986477 C384.747158,42.9517687 384.428585,42.7955812 384.170752,42.5179145 C383.912919,42.2402479 383.767888,41.9105187 383.735658,41.528727 L383.728752,41.3619145 L383.728752,39.3219145 L383.735658,39.155102 C383.767888,38.7733104 383.912919,38.4435812 384.170752,38.1659145 C384.428585,37.8882479 384.747158,37.7320604 385.126471,37.697352 L385.292752,37.6899145 L400.524752,37.6899145 L400.706971,37.6968208 C401.120992,37.7290499 401.456919,37.8740812 401.714752,38.1319145 C401.972585,38.3897479 402.117617,38.7256749 402.149846,39.1396958 L402.156752,39.3219145 L402.156752,45.7819145 L402.151587,46.3034792 C402.082713,49.7605313 401.325101,52.8166764 399.878752,55.4719145 C398.360085,58.2599145 396.150085,60.4132479 393.248752,61.9319145 C390.347419,63.4505812 386.924752,64.2099145 382.980752,64.2099145 C377.087419,64.2099145 372.508752,62.5779145 369.244752,59.3139145 C365.980752,56.0499145 364.235419,51.6299145 364.008752,46.0539145 L363.988974,45.3520641 C363.970891,44.5925738 363.957893,43.6601638 363.949982,42.5548342 L363.940941,39.2034325 L363.949982,36.7373494 C363.960531,35.256042 363.980121,34.1002303 364.008752,33.2699145 C364.190085,27.7392479 365.924085,23.3532479 369.210752,20.1119145 C372.497419,16.8705812 377.087419,15.2499145 382.980752,15.2499145 Z M40.3418803,7.46069873e-13 C59.0769231,7.46069873e-13 75.6239316,13.2649573 79.7264957,31.5213675 C79.9316239,32.4102564 79.3846154,33.2991453 78.4957265,33.5042735 C77.6068376,33.7094017 76.7179487,33.1623932 76.5128205,32.2735043 C72.7521368,15.4529915 57.5726496,3.28205128 40.3418803,3.28205128 C19.965812,3.28205128 3.28205128,19.8974359 3.28205128,40.3418803 C3.28205128,47.6653171 5.42126571,54.7942799 9.44721951,60.8451059 L9.77777778,61.3333333 C10.3247863,62.0854701 10.1196581,63.1111111 9.36752137,63.6581197 C9.09401709,63.8632479 8.82051282,63.9316239 8.47863248,63.9316239 C7.93162393,63.9316239 7.45299145,63.6581197 7.11111111,63.2478632 C2.46153846,56.4786325 -4.61852778e-13,48.6153846 -4.61852778e-13,40.3418803 C-4.61852778e-13,18.1196581 18.1196581,7.46069873e-13 40.3418803,7.46069873e-13 Z M416.436752,15.9299145 L416.624099,15.9354656 C416.984915,15.9576696 417.262466,16.046486 417.456752,16.2019145 C417.626752,16.3379145 417.796752,16.4994145 417.966752,16.6864145 L418.136752,16.8819145 L440.916752,51.9699145 L440.916752,17.5619145 L440.923658,17.3796958 C440.955888,16.9656749 441.100919,16.6297479 441.358752,16.3719145 C441.616585,16.1140812 441.935158,15.9690499 442.314471,15.9368208 L442.480752,15.9299145 L445.540752,15.9299145 L445.722971,15.9368208 C446.136992,15.9690499 446.472919,16.1140812 446.730752,16.3719145 C446.988585,16.6297479 447.133617,16.9656749 447.165846,17.3796958 L447.172752,17.5619145 L447.172752,61.8979145 L447.165846,62.064727 C447.133617,62.4465187 446.988585,62.7762479 446.730752,63.0539145 C446.472919,63.3315812 446.154346,63.4877687 445.775033,63.522477 L445.608752,63.5299145 L442.548752,63.5299145 L442.37493,63.5242814 C441.752334,63.4829717 441.292026,63.2144589 440.994007,62.7187429 L440.916752,62.5779145 L418.136752,27.8299145 L418.136752,61.9659145 L418.129846,62.1321958 C418.097617,62.5115083 417.952585,62.8300812 417.694752,63.0879145 C417.436919,63.3457479 417.118346,63.4907791 416.739033,63.5230083 L416.572752,63.5299145 L413.444752,63.5299145 L413.279002,63.5230083 C412.902169,63.4907791 412.594752,63.3457479 412.356752,63.0879145 C412.118752,62.8300812 411.984877,62.5115083 411.955127,62.1321958 L411.948752,61.9659145 L411.948752,17.5619145 L411.955127,17.3796958 C411.984877,16.9656749 412.118752,16.6297479 412.356752,16.3719145 C412.594752,16.1140812 412.902169,15.9690499 413.279002,15.9368208 L413.444752,15.9299145 L416.436752,15.9299145 Z M352.244752,15.9299145 L352.42644,15.9362895 C352.837981,15.9660395 353.162752,16.0999145 353.400752,16.3379145 C353.638752,16.5759145 353.772627,16.9006854 353.802377,17.312227 L353.808752,17.4939145 L353.808752,61.9659145 L353.801846,62.1321958 C353.769617,62.5115083 353.624585,62.8300812 353.366752,63.0879145 C353.108919,63.3457479 352.790346,63.4907791 352.411033,63.5230083 L352.244752,63.5299145 L348.844752,63.5299145 L348.679002,63.5230083 C348.302169,63.4907791 347.994752,63.3457479 347.756752,63.0879145 C347.518752,62.8300812 347.384877,62.5115083 347.355127,62.1321958 L347.348752,61.9659145 L347.348752,17.4939145 L347.355127,17.3276333 C347.384877,16.9483208 347.518752,16.6297479 347.756752,16.3719145 C347.994752,16.1140812 348.302169,15.9690499 348.679002,15.9368208 L348.844752,15.9299145 L352.244752,15.9299145 Z M293.492752,15.9299145 L293.674971,15.9368208 C294.088992,15.9690499 294.424919,16.1140812 294.682752,16.3719145 C294.940585,16.6297479 295.085617,16.9656749 295.117846,17.3796958 L295.124752,17.5619145 L295.124752,20.0099145 L295.117846,20.1756645 C295.085617,20.5524979 294.940585,20.8599145 294.682752,21.0979145 C294.424919,21.3359145 294.088992,21.4697895 293.674971,21.4995395 L293.492752,21.5059145 L270.304752,21.5059145 L270.304752,36.6699145 L291.996752,36.6699145 L292.178971,36.6768208 C292.592992,36.7090499 292.928919,36.8540812 293.186752,37.1119145 C293.444585,37.3697479 293.589617,37.7056749 293.621846,38.1196958 L293.628752,38.3019145 L293.628752,40.6139145 L293.621846,40.7801958 C293.589617,41.1595083 293.444585,41.4780812 293.186752,41.7359145 C292.928919,41.9937479 292.592992,42.1387791 292.178971,42.1710083 L291.996752,42.1779145 L270.304752,42.1779145 L270.304752,57.8859145 L294.036752,57.8859145 L294.218971,57.8928208 C294.632992,57.9250499 294.968919,58.0700812 295.226752,58.3279145 C295.484585,58.5857479 295.629617,58.9216749 295.661846,59.3356958 L295.668752,59.5179145 L295.668752,61.9659145 L295.661315,62.1321958 C295.626606,62.5115083 295.470419,62.8300812 295.192752,63.0879145 C294.915085,63.3457479 294.585356,63.4907791 294.203565,63.5230083 L294.036752,63.5299145 L265.544752,63.5299145 L265.379002,63.5230083 C265.002169,63.4907791 264.694752,63.3457479 264.456752,63.0879145 C264.218752,62.8300812 264.084877,62.5115083 264.055127,62.1321958 L264.048752,61.9659145 L264.048752,17.5619145 L264.055127,17.3796958 C264.084877,16.9656749 264.218752,16.6297479 264.456752,16.3719145 C264.694752,16.1140812 265.002169,15.9690499 265.379002,15.9368208 L265.544752,15.9299145 L293.492752,15.9299145 Z M234.128752,15.9299145 L234.651561,15.9329323 C241.226235,16.009382 245.993299,17.5383761 248.952752,20.5199145 C251.990085,23.5799145 253.554085,28.1925812 253.644752,34.3579145 L253.678058,35.5957921 C253.696562,36.4950574 253.707664,37.5423499 253.711364,38.7376696 L253.712405,40.1313227 C253.7099,41.8026039 253.693821,43.21601 253.664171,44.3715409 L253.644752,45.0339145 C253.554085,49.3405812 252.862752,52.8425812 251.570752,55.5399145 C250.278752,58.2372479 248.250085,60.2432479 245.484752,61.5579145 C242.834641,62.8178034 239.351845,63.4739955 235.036363,63.5264909 L234.468752,63.5299145 L218.760752,63.5299145 L218.595002,63.5230083 C218.218169,63.4907791 217.910752,63.3457479 217.672752,63.0879145 C217.434752,62.8300812 217.300877,62.5115083 217.271127,62.1321958 L217.264752,61.9659145 L217.264752,17.5619145 L217.271127,17.3796958 C217.300877,16.9656749 217.434752,16.6297479 217.672752,16.3719145 C217.910752,16.1140812 218.218169,15.9690499 218.595002,15.9368208 L218.760752,15.9299145 L234.128752,15.9299145 Z M192.920752,15.9299145 L193.10244,15.9368208 C193.513981,15.9690499 193.838752,16.1140812 194.076752,16.3719145 C194.314752,16.6297479 194.448627,16.9656749 194.478377,17.3796958 L194.484752,17.5619145 L194.484752,20.2139145 L194.477846,20.3801958 C194.445617,20.7595083 194.300585,21.0780812 194.042752,21.3359145 C193.784919,21.5937479 193.466346,21.7387791 193.087033,21.7710083 L192.920752,21.7779145 L179.864752,21.7779145 L179.864752,61.9659145 L179.857315,62.1321958 C179.822606,62.5115083 179.666419,62.8300812 179.388752,63.0879145 C179.111085,63.3457479 178.781356,63.4907791 178.399565,63.5230083 L178.232752,63.5299145 L174.968752,63.5299145 L174.802471,63.5230083 C174.423158,63.4907791 174.104585,63.3457479 173.846752,63.0879145 C173.588919,62.8300812 173.443888,62.5115083 173.411658,62.1321958 L173.404752,61.9659145 L173.404752,21.7779145 L160.280752,21.7779145 L160.114471,21.7710083 C159.735158,21.7387791 159.416585,21.5937479 159.158752,21.3359145 C158.900919,21.0780812 158.755888,20.7595083 158.723658,20.3801958 L158.716752,20.2139145 L158.716752,17.5619145 L158.723658,17.3796958 C158.755888,16.9656749 158.900919,16.6297479 159.158752,16.3719145 C159.416585,16.1140812 159.735158,15.9690499 160.114471,15.9368208 L160.280752,15.9299145 L192.920752,15.9299145 Z M92.7179487,59.6923077 C93.6068376,59.6923077 94.3589744,60.4444444 94.3589744,61.3333333 C94.3589744,62.2222222 93.6752137,62.974359 92.7179487,62.974359 L82.8717949,62.974359 C81.982906,62.974359 81.2307692,62.2222222 81.2307692,61.3333333 C81.2307692,60.4444444 81.982906,59.6923077 82.8717949,59.6923077 L92.7179487,59.6923077 Z M135.120752,20.8259145 C131.494085,20.8259145 128.581419,21.9365812 126.382752,24.1579145 C124.259902,26.3026502 123.098484,29.5250362 122.8985,33.8250727 L122.880752,34.2899145 C122.841463,35.4292923 122.8192,36.9432242 122.813961,38.8317101 L122.815875,41.1246084 C122.823507,42.7529077 122.845133,44.1013431 122.880752,45.1699145 C123.016752,49.7032479 124.172752,53.0692479 126.348752,55.2679145 C128.524752,57.4665812 131.448752,58.5659145 135.120752,58.5659145 C138.747419,58.5659145 141.648752,57.4665812 143.824752,55.2679145 C145.925718,53.145064 147.075815,49.9339978 147.275045,45.634716 L147.384344,42.1723635 C147.401614,41.5247445 147.413847,40.9778662 147.421042,40.5317286 L147.428375,39.5656597 L147.41519,38.5409505 C147.3956,37.5059441 147.354787,36.0889321 147.292752,34.2899145 C147.156752,29.7565812 146.000752,26.3792479 143.824752,24.1579145 C141.648752,21.9365812 138.747419,20.8259145 135.120752,20.8259145 Z M233.788752,21.5059145 L223.656752,21.5059145 L223.656752,57.8859145 L234.128752,57.8859145 C237.302085,57.8859145 239.829419,57.4439145 241.710752,56.5599145 C243.592085,55.6759145 244.952085,54.2932479 245.790752,52.4119145 C246.585278,50.6295987 247.044137,48.24715 247.167328,45.2645683 L247.295043,41.127321 C247.310469,40.5141641 247.318953,40.0571886 247.320495,39.7563947 L247.318052,39.2985894 C247.307076,38.4449759 247.262643,36.8887509 247.184752,34.6299145 C247.094085,30.0965812 246.017419,26.7759145 243.954752,24.6679145 C241.958623,22.6279145 238.720663,21.5750113 234.240871,21.5092049 L233.788752,21.5059145 Z" id="形状"></path>
        </g>
    </g>
</svg>